<svg width="52" height="15" viewBox="0 0 52 15" fill="none" xmlns="http://www.w3.org/2000/svg">
    <path fill-rule="evenodd" clip-rule="evenodd"
          d="M14.0124 2.72927e-07V0.00626439C14.0059 0.00626439 11.9812 2.38957e-07 11.4413 1.8855C10.9464 3.6144 9.55154 8.38765 9.51298 8.5192H9.12732C9.12732 8.5192 7.70037 3.63945 7.19901 1.87924C6.65908 -0.0062639 4.62794 2.72927e-07 4.62794 2.72927e-07H0V14.3448H4.62794V5.82563H5.0136L7.71323 14.3448H10.9271L13.6267 5.83189H14.0124V14.3448H18.6403V2.72927e-07H14.0124Z"
          fill="#4DB45E"></path>
    <path fill-rule="evenodd" clip-rule="evenodd"
          d="M30.9172 0C30.9172 0 29.5609 0.119018 28.9246 1.50339L25.6465 8.5192H25.2608V0H20.6329V14.3448H25.0037C25.0037 14.3448 26.4242 14.2195 27.0606 12.8414L30.2744 5.82563H30.6601V14.3448H35.288V0H30.9172Z"
          fill="#4DB45E"></path>
    <path fill-rule="evenodd" clip-rule="evenodd"
          d="M37.3449 6.51468V14.3448H41.9728V9.77202H46.9864C49.1718 9.77202 51.023 8.41271 51.7108 6.51468H37.3449Z"
          fill="#4DB45E"></path>
    <path fill-rule="evenodd" clip-rule="evenodd"
          d="M46.986 0H36.6953C37.2095 2.73116 39.3114 4.9236 42.0303 5.63771C42.6474 5.80057 43.2965 5.88827 43.965 5.88827H51.8968C51.9675 5.56254 51.9996 5.23054 51.9996 4.88601C51.9996 2.18618 49.7564 0 46.986 0Z"
          fill="#02ACE0"></path>
</svg>