<svg xmlns="http://www.w3.org/2000/svg" display="none">

    <symbol id="fb" viewBox="0 0 24 24">
        <path d="m15.997 3.985h2.191v-3.816c-.378-.052-1.678-.169-3.192-.169-3.159 0-5.323 1.987-5.323 5.639v3.361h-3.486v4.266h3.486v10.734h4.274v-10.733h3.345l.531-4.266h-3.877v-2.939c.001-1.233.333-2.077 2.051-2.077z"/>
    </symbol>

    <symbol id="skype" viewBox="0 0 24 24">
        <path d="m23.309 14.547c1.738-7.81-5.104-14.905-13.139-13.543-4.362-2.707-10.17.352-10.17 5.542 0 1.207.333 2.337.912 3.311-1.615 7.828 5.283 14.821 13.311 13.366 5.675 3.001 11.946-2.984 9.086-8.676zm-7.638 4.71c-2.108.867-5.577.872-7.676-.227-2.993-1.596-3.525-5.189-.943-5.189 1.946 0 1.33 2.269 3.295 3.194.902.417 2.841.46 3.968-.3 1.113-.745 1.011-1.917.406-2.477-1.603-1.48-6.19-.892-8.287-3.483-.911-1.124-1.083-3.107.037-4.545 1.952-2.512 7.68-2.665 10.143-.768 2.274 1.76 1.66 4.096-.175 4.096-2.207 0-1.047-2.888-4.61-2.888-2.583 0-3.599 1.837-1.78 2.731 2.466 1.225 8.75.816 8.75 5.603-.005 1.992-1.226 3.477-3.128 4.253z"/>
    </symbol>

    <symbol id="telegram" viewBox="0 0 24 24">
        <path d="m9.417 15.181-.397 5.584c.568 0 .814-.244 1.109-.537l2.663-2.545 5.518 4.041c1.012.564 1.725.267 1.998-.931l3.622-16.972.001-.001c.321-1.496-.541-2.081-1.527-1.714l-21.29 8.151c-1.453.564-1.431 1.374-.247 1.741l5.443 1.693 12.643-7.911c.595-.394 1.136-.176.691.218z"/>
    </symbol>

    <symbol id="vk" viewBox="0 0 24 24">
        <path d="m19.915 13.028c-.388-.49-.277-.708 0-1.146.005-.005 3.208-4.431 3.538-5.932l.002-.001c.164-.547 0-.949-.793-.949h-2.624c-.668 0-.976.345-1.141.731 0 0-1.336 3.198-3.226 5.271-.61.599-.892.791-1.225.791-.164 0-.419-.192-.419-.739v-5.105c0-.656-.187-.949-.74-.949h-4.126c-.419 0-.668.306-.668.591 0 .622.945.765 1.043 2.515v3.797c0 .832-.151.985-.486.985-.892 0-3.057-3.211-4.34-6.886-.259-.713-.512-1.001-1.185-1.001h-2.625c-.749 0-.9.345-.9.731 0 .682.892 4.073 4.148 8.553 2.17 3.058 5.226 4.715 8.006 4.715 1.671 0 1.875-.368 1.875-1.001 0-2.922-.151-3.198.686-3.198.388 0 1.056.192 2.616 1.667 1.783 1.749 2.076 2.532 3.074 2.532h2.624c.748 0 1.127-.368.909-1.094-.499-1.527-3.871-4.668-4.023-4.878z"/>
    </symbol>

    <symbol id="view" viewBox="0 0 512 512">
        <g>
            <path d="m510.417 249.292c-.675-1.351-16.993-33.438-56.765-65.255-23.142-18.513-49.592-33.252-78.616-43.806-36.005-13.092-76.054-19.731-119.036-19.731s-83.031 6.639-119.036 19.731c-29.024 10.554-55.474 25.293-78.616 43.806-39.771 31.817-56.089 63.904-56.765 65.255-2.111 4.223-2.111 9.193 0 13.416.675 1.351 16.993 33.438 56.765 65.255 23.142 18.513 49.592 33.252 78.616 43.806 36.005 13.092 76.054 19.731 119.036 19.731s83.031-6.639 119.036-19.731c29.024-10.554 55.474-25.293 78.616-43.806 39.771-31.817 56.089-63.904 56.765-65.255 2.111-4.223 2.111-9.193 0-13.416zm-148.917 6.708c0 58.173-47.327 105.5-105.5 105.5s-105.5-47.327-105.5-105.5 47.327-105.5 105.5-105.5 105.5 47.327 105.5 105.5zm-283.192 49.505c-24.858-19.615-39.44-39.465-45.905-49.52 11.312-17.609 47.749-65.38 122.536-90.139-21.405 23.969-34.439 55.566-34.439 90.154 0 34.722 13.133 66.43 34.686 90.433-28.457-9.341-54.151-22.994-76.878-40.928zm278.754 40.649c21.405-23.969 34.438-55.566 34.438-90.154 0-34.722-13.133-66.43-34.686-90.433 28.457 9.341 54.151 22.994 76.878 40.928 24.869 19.624 39.454 39.484 45.906 49.518-11.312 17.609-47.749 65.381-122.536 90.141z"/>
            <path d="m256 301.125c24.882 0 45.125-20.243 45.125-45.125s-20.243-45.125-45.125-45.125-45.125 20.243-45.125 45.125 20.243 45.125 45.125 45.125zm0-60.25c8.34 0 15.125 6.785 15.125 15.125s-6.785 15.125-15.125 15.125-15.125-6.785-15.125-15.125 6.785-15.125 15.125-15.125z"/>
        </g>
    </symbol>

    <symbol id="heart" viewBox="0 -28 512.001 512">
        <path d="m256 455.515625c-7.289062 0-14.316406-2.640625-19.792969-7.4375-20.683593-18.085937-40.625-35.082031-58.21875-50.074219l-.089843-.078125c-51.582032-43.957031-96.125-81.917969-127.117188-119.3125-34.644531-41.804687-50.78125-81.441406-50.78125-124.742187 0-42.070313 14.425781-80.882813 40.617188-109.292969 26.503906-28.746094 62.871093-44.578125 102.414062-44.578125 29.554688 0 56.621094 9.34375 80.445312 27.769531 12.023438 9.300781 22.921876 20.683594 32.523438 33.960938 9.605469-13.277344 20.5-24.660157 32.527344-33.960938 23.824218-18.425781 50.890625-27.769531 80.445312-27.769531 39.539063 0 75.910156 15.832031 102.414063 44.578125 26.191406 28.410156 40.613281 67.222656 40.613281 109.292969 0 43.300781-16.132812 82.9375-50.777344 124.738281-30.992187 37.398437-75.53125 75.355469-127.105468 119.308594-17.625 15.015625-37.597657 32.039062-58.328126 50.167969-5.472656 4.789062-12.503906 7.429687-19.789062 7.429687zm-112.96875-425.523437c-31.066406 0-59.605469 12.398437-80.367188 34.914062-21.070312 22.855469-32.675781 54.449219-32.675781 88.964844 0 36.417968 13.535157 68.988281 43.882813 105.605468 29.332031 35.394532 72.960937 72.574219 123.476562 115.625l.09375.078126c17.660156 15.050781 37.679688 32.113281 58.515625 50.332031 20.960938-18.253907 41.011719-35.34375 58.707031-50.417969 50.511719-43.050781 94.136719-80.222656 123.46875-115.617188 30.34375-36.617187 43.878907-69.1875 43.878907-105.605468 0-34.515625-11.605469-66.109375-32.675781-88.964844-20.757813-22.515625-49.300782-34.914062-80.363282-34.914062-22.757812 0-43.652344 7.234374-62.101562 21.5-16.441406 12.71875-27.894532 28.796874-34.609375 40.046874-3.453125 5.785157-9.53125 9.238282-16.261719 9.238282s-12.808594-3.453125-16.261719-9.238282c-6.710937-11.25-18.164062-27.328124-34.609375-40.046874-18.449218-14.265626-39.34375-21.5-62.097656-21.5zm0 0"/>
    </symbol>

    <symbol id="location" viewBox="0 0 512 512">
        <g>
            <g>
                <path d="M341.476,338.285c54.483-85.493,47.634-74.827,49.204-77.056C410.516,233.251,421,200.322,421,166
			C421,74.98,347.139,0,256,0C165.158,0,91,74.832,91,166c0,34.3,10.704,68.091,31.19,96.446l48.332,75.84
			C118.847,346.227,31,369.892,31,422c0,18.995,12.398,46.065,71.462,67.159C143.704,503.888,198.231,512,256,512
			c108.025,0,225-30.472,225-90C481,369.883,393.256,346.243,341.476,338.285z M147.249,245.945
			c-0.165-0.258-0.337-0.51-0.517-0.758C129.685,221.735,121,193.941,121,166c0-75.018,60.406-136,135-136
			c74.439,0,135,61.009,135,136c0,27.986-8.521,54.837-24.646,77.671c-1.445,1.906,6.094-9.806-110.354,172.918L147.249,245.945z
			 M256,482c-117.994,0-195-34.683-195-60c0-17.016,39.568-44.995,127.248-55.901l55.102,86.463
			c2.754,4.322,7.524,6.938,12.649,6.938s9.896-2.617,12.649-6.938l55.101-86.463C411.431,377.005,451,404.984,451,422
			C451,447.102,374.687,482,256,482z"/>
            </g>
        </g>
        <g>
            <g>
                <path d="M256,91c-41.355,0-75,33.645-75,75s33.645,75,75,75c41.355,0,75-33.645,75-75S297.355,91,256,91z M256,211
			c-24.813,0-45-20.187-45-45s20.187-45,45-45s45,20.187,45,45S280.813,211,256,211z"/>
            </g>
        </g>
    </symbol>

    <symbol id="search" viewBox="0 0 512.005 512.005">
        <g>
            <g>
                <path d="M505.749,475.587l-145.6-145.6c28.203-34.837,45.184-79.104,45.184-127.317c0-111.744-90.923-202.667-202.667-202.667
			S0,90.925,0,202.669s90.923,202.667,202.667,202.667c48.213,0,92.48-16.981,127.317-45.184l145.6,145.6
			c4.16,4.16,9.621,6.251,15.083,6.251s10.923-2.091,15.083-6.251C514.091,497.411,514.091,483.928,505.749,475.587z
			 M202.667,362.669c-88.235,0-160-71.765-160-160s71.765-160,160-160s160,71.765,160,160S290.901,362.669,202.667,362.669z"/>
            </g>
        </g>
    </symbol>

    <symbol id="add_basket" viewBox="0 0 26 26">
        <g>
            <path d="M25.856,10.641C21.673,19.5,20.312,19.5,19.5,19.5h-8c-2.802,0-4.949-1.648-5.47-4.2
		c-0.016-0.078-1.6-7.853-2.005-10.025C3.826,4.21,3.32,3.5,1.5,3.5C0.671,3.5,0,2.829,0,2s0.671-1.5,1.5-1.5
		c3.02,0,4.964,1.5,5.474,4.224c0.401,2.149,1.98,9.898,1.996,9.977c0.319,1.566,1.722,1.8,2.53,1.8h7.605
		c0.817-0.878,2.679-4.261,4.038-7.141c0.354-0.749,1.249-1.068,1.997-0.716C25.89,8.997,26.21,9.891,25.856,10.641z M10.5,20.5
		C9.119,20.5,8,21.619,8,23s1.119,2.5,2.5,2.5S13,24.381,13,23S11.881,20.5,10.5,20.5z M19.5,20.5c-1.381,0-2.5,1.119-2.5,2.5
		s1.119,2.5,2.5,2.5S22,24.381,22,23S20.881,20.5,19.5,20.5z M14.663,12.344c0.1,0.081,0.223,0.12,0.346,0.12
		s0.244-0.039,0.346-0.12c0.1-0.079,2.828-2.74,4.316-4.954c0.115-0.172,0.126-0.392,0.028-0.574
		c-0.095-0.181-0.285-0.295-0.49-0.295h-2.226c0,0-0.217-4.291-0.359-4.49c-0.206-0.294-1.057-0.494-1.616-0.494
		c-0.561,0-1.427,0.2-1.634,0.494c-0.141,0.198-0.328,4.49-0.328,4.49h-2.255c-0.206,0-0.395,0.114-0.492,0.295
		c-0.097,0.182-0.086,0.403,0.028,0.574C11.816,9.605,14.564,12.265,14.663,12.344z"/>
        </g>
    </symbol>

    <symbol id="arrow_right" viewBox="0 0 512 512">
        <g>
            <g>
                <path d="M506.134,241.843c-0.006-0.006-0.011-0.013-0.018-0.019l-104.504-104c-7.829-7.791-20.492-7.762-28.285,0.068
			c-7.792,7.829-7.762,20.492,0.067,28.284L443.558,236H20c-11.046,0-20,8.954-20,20c0,11.046,8.954,20,20,20h423.557
			l-70.162,69.824c-7.829,7.792-7.859,20.455-0.067,28.284c7.793,7.831,20.457,7.858,28.285,0.068l104.504-104
			c0.006-0.006,0.011-0.013,0.018-0.019C513.968,262.339,513.943,249.635,506.134,241.843z"/>
            </g>
        </g>
    </symbol>


    <symbol id="basket" viewBox="0 0 511.976 511.976">
        <g>
            <g>
                <path d="M208,399.988c-26.464,0-48,21.536-48,48s21.536,48,48,48s48-21.536,48-48S234.464,399.988,208,399.988z M208,463.988
			c-8.832,0-16-7.168-16-16c0-8.832,7.168-16,16-16c8.832,0,16,7.168,16,16C224,456.82,216.832,463.988,208,463.988z"/>
            </g>
        </g>
        <g>
            <g>
                <path d="M400,399.988c-26.464,0-48,21.536-48,48s21.536,48,48,48s48-21.536,48-48S426.464,399.988,400,399.988z M400,463.988
			c-8.832,0-16-7.168-16-16c0-8.832,7.168-16,16-16c8.832,0,16,7.168,16,16C416,456.82,408.832,463.988,400,463.988z"/>
            </g>
        </g>
        <g>
            <g>
                <path d="M508.256,85.748c-3.008-3.648-7.52-5.76-12.256-5.76H119.936l-13.92-52.128c-1.856-7.008-8.192-11.872-15.456-11.872H16
			c-8.832,0-16,7.168-16,16c0,8.832,7.168,16,16,16h62.272l82.272,308.128c1.856,7.008,8.192,11.872,15.456,11.872h256
			c8.832,0,16-7.168,16-16c0-8.832-7.168-16-16-16H188.288l-9.376-35.136l285.792-12.864c7.456-0.352,13.696-5.792,15.008-13.12
			l32-176C512.576,94.196,511.296,89.396,508.256,85.748z M450.56,256.596l-280.128,12.608L128.48,111.988h348.352L450.56,256.596z"
                />
            </g>
        </g>
        <g>
            <g>
                <path d="M400,143.988c-8.832,0-16,7.168-16,16v64c0,8.832,7.168,16,16,16c8.832,0,16-7.168,16-16v-64
			C416,151.156,408.832,143.988,400,143.988z"/>
            </g>
        </g>
        <g>
            <g>
                <path d="M304,143.988c-8.832,0-16,7.168-16,16v64c0,8.832,7.168,16,16,16c8.832,0,16-7.168,16-16v-64
			C320,151.156,312.832,143.988,304,143.988z"/>
            </g>
        </g>
        <g>
            <g>
                <path d="M208,143.988c-8.832,0-16,7.168-16,16v64c0,8.832,7.168,16,16,16c8.832,0,16-7.168,16-16v-64
			C224,151.156,216.832,143.988,208,143.988z"/>
            </g>
        </g>
    </symbol>

    <symbol id="calendar" viewBox="0 0 512 512">
        <g>
            <g>
                <path d="M452,40h-24V0h-40v40H124V0H84v40H60C26.916,40,0,66.916,0,100v352c0,33.084,26.916,60,60,60h392
			c33.084,0,60-26.916,60-60V100C512,66.916,485.084,40,452,40z M472,452c0,11.028-8.972,20-20,20H60c-11.028,0-20-8.972-20-20V188
			h432V452z M472,148H40v-48c0-11.028,8.972-20,20-20h24v40h40V80h264v40h40V80h24c11.028,0,20,8.972,20,20V148z"/>
            </g>
        </g>
        <g>
            <g>
                <rect x="76" y="230" width="40" height="40"/>
            </g>
        </g>
        <g>
            <g>
                <rect x="156" y="230" width="40" height="40"/>
            </g>
        </g>
        <g>
            <g>
                <rect x="236" y="230" width="40" height="40"/>
            </g>
        </g>
        <g>
            <g>
                <rect x="316" y="230" width="40" height="40"/>
            </g>
        </g>
        <g>
            <g>
                <rect x="396" y="230" width="40" height="40"/>
            </g>
        </g>
        <g>
            <g>
                <rect x="76" y="310" width="40" height="40"/>
            </g>
        </g>
        <g>
            <g>
                <rect x="156" y="310" width="40" height="40"/>
            </g>
        </g>
        <g>
            <g>
                <rect x="236" y="310" width="40" height="40"/>
            </g>
        </g>
        <g>
            <g>
                <rect x="316" y="310" width="40" height="40"/>
            </g>
        </g>
        <g>
            <g>
                <rect x="76" y="390" width="40" height="40"/>
            </g>
        </g>
        <g>
            <g>
                <rect x="156" y="390" width="40" height="40"/>
            </g>
        </g>
        <g>
            <g>
                <rect x="236" y="390" width="40" height="40"/>
            </g>
        </g>
        <g>
            <g>
                <rect x="316" y="390" width="40" height="40"/>
            </g>
        </g>
        <g>
            <g>
                <rect x="396" y="310" width="40" height="40"/>
            </g>
        </g>
    </symbol>

    <symbol id="star" viewBox="0 0 512.002 512.002">
        <g>
            <g>
                <path d="M511.267,197.258c-1.764-5.431-6.457-9.389-12.107-10.209l-158.723-23.065L269.452,20.157
			c-2.526-5.12-7.741-8.361-13.45-8.361c-5.71,0-10.924,3.241-13.451,8.361l-70.988,143.827l-158.72,23.065
			c-5.649,0.82-10.344,4.778-12.108,10.208c-1.765,5.431-0.293,11.392,3.796,15.377l114.848,111.954L92.271,482.671
			c-0.966,5.628,1.348,11.314,5.967,14.671c2.613,1.898,5.708,2.864,8.818,2.864c2.388,0,4.784-0.569,6.978-1.723l141.967-74.638
			l141.961,74.637c5.055,2.657,11.178,2.215,15.797-1.141c4.619-3.356,6.934-9.044,5.969-14.672l-27.117-158.081l114.861-111.955
			C511.56,208.649,513.033,202.688,511.267,197.258z"/>
            </g>
        </g>
    </symbol>


    <symbol id="star0" viewBox="0 -10 511.98685 511">
        <path d="m114.59375 491.140625c-5.609375 0-11.179688-1.75-15.933594-5.1875-8.855468-6.417969-12.992187-17.449219-10.582031-28.09375l32.9375-145.089844-111.703125-97.960937c-8.210938-7.167969-11.347656-18.519532-7.976562-28.90625 3.371093-10.367188 12.542968-17.707032 23.402343-18.710938l147.796875-13.417968 58.433594-136.746094c4.308594-10.046875 14.121094-16.535156 25.023438-16.535156 10.902343 0 20.714843 6.488281 25.023437 16.511718l58.433594 136.769532 147.773437 13.417968c10.882813.980469 20.054688 8.34375 23.425782 18.710938 3.371093 10.367187.253906 21.738281-7.957032 28.90625l-111.703125 97.941406 32.9375 145.085938c2.414063 10.667968-1.726562 21.699218-10.578125 28.097656-8.832031 6.398437-20.609375 6.890625-29.910156 1.300781l-127.445312-76.160156-127.445313 76.203125c-4.308594 2.558594-9.109375 3.863281-13.953125 3.863281zm141.398438-112.875c4.84375 0 9.640624 1.300781 13.953124 3.859375l120.277344 71.9375-31.085937-136.941406c-2.21875-9.746094 1.089843-19.921875 8.621093-26.515625l105.472657-92.5-139.542969-12.671875c-10.046875-.917969-18.6875-7.234375-22.613281-16.492188l-55.082031-129.046875-55.148438 129.066407c-3.882812 9.195312-12.523438 15.511718-22.546875 16.429687l-139.5625 12.671875 105.46875 92.5c7.554687 6.613281 10.859375 16.769531 8.621094 26.539062l-31.0625 136.9375 120.277343-71.914062c4.308594-2.558594 9.109376-3.859375 13.953126-3.859375zm-84.585938-221.847656s0 .023437-.023438.042969zm169.128906-.0625.023438.042969c0-.023438 0-.023438-.023438-.042969zm0 0"/>
    </symbol>

    <symbol id="user" viewBox="-42 0 512 512.001">
        <path d="m210.351562 246.632812c33.882813 0 63.21875-12.152343 87.195313-36.128906 23.96875-23.972656 36.125-53.304687 36.125-87.191406 0-33.875-12.152344-63.210938-36.128906-87.191406-23.976563-23.96875-53.3125-36.121094-87.191407-36.121094-33.886718 0-63.21875 12.152344-87.191406 36.125s-36.128906 53.308594-36.128906 87.1875c0 33.886719 12.15625 63.222656 36.128906 87.195312 23.980469 23.96875 53.316406 36.125 87.191406 36.125zm-65.972656-189.292968c18.394532-18.394532 39.972656-27.335938 65.972656-27.335938 25.996094 0 47.578126 8.941406 65.976563 27.335938 18.394531 18.398437 27.339844 39.980468 27.339844 65.972656 0 26-8.945313 47.578125-27.339844 65.976562-18.398437 18.398438-39.980469 27.339844-65.976563 27.339844-25.992187 0-47.570312-8.945312-65.972656-27.339844-18.398437-18.394531-27.34375-39.976562-27.34375-65.976562 0-25.992188 8.945313-47.574219 27.34375-65.972656zm0 0"/>
        <path d="m426.128906 393.703125c-.691406-9.976563-2.089844-20.859375-4.148437-32.351563-2.078125-11.578124-4.753907-22.523437-7.957031-32.527343-3.3125-10.339844-7.808594-20.550781-13.375-30.335938-5.769532-10.15625-12.550782-19-20.160157-26.277343-7.957031-7.613282-17.699219-13.734376-28.964843-18.199219-11.226563-4.441407-23.667969-6.691407-36.976563-6.691407-5.226563 0-10.28125 2.144532-20.042969 8.5-6.007812 3.917969-13.035156 8.449219-20.878906 13.460938-6.707031 4.273438-15.792969 8.277344-27.015625 11.902344-10.949219 3.542968-22.066406 5.339844-33.042969 5.339844-10.96875 0-22.085937-1.796876-33.042968-5.339844-11.210938-3.621094-20.300782-7.625-26.996094-11.898438-7.769532-4.964844-14.800782-9.496094-20.898438-13.46875-9.753906-6.355468-14.808594-8.5-20.035156-8.5-13.3125 0-25.75 2.253906-36.972656 6.699219-11.257813 4.457031-21.003906 10.578125-28.96875 18.199219-7.609375 7.28125-14.390625 16.121094-20.15625 26.273437-5.558594 9.785157-10.058594 19.992188-13.371094 30.339844-3.199219 10.003906-5.875 20.945313-7.953125 32.523437-2.0625 11.476563-3.457031 22.363282-4.148437 32.363282-.679688 9.777344-1.023438 19.953125-1.023438 30.234375 0 26.726562 8.496094 48.363281 25.25 64.320312 16.546875 15.746094 38.4375 23.730469 65.066406 23.730469h246.53125c26.621094 0 48.511719-7.984375 65.0625-23.730469 16.757813-15.945312 25.253906-37.589843 25.253906-64.324219-.003906-10.316406-.351562-20.492187-1.035156-30.242187zm-44.90625 72.828125c-10.933594 10.40625-25.449218 15.464844-44.378906 15.464844h-246.527344c-18.933594 0-33.449218-5.058594-44.378906-15.460938-10.722656-10.207031-15.933594-24.140625-15.933594-42.585937 0-9.59375.316406-19.066407.949219-28.160157.617187-8.921874 1.878906-18.722656 3.75-29.136718 1.847656-10.285156 4.199219-19.9375 6.996094-28.675782 2.683593-8.378906 6.34375-16.675781 10.882812-24.667968 4.332031-7.617188 9.316407-14.152344 14.816407-19.417969 5.144531-4.925781 11.628906-8.957031 19.269531-11.980469 7.066406-2.796875 15.007812-4.328125 23.628906-4.558594 1.050781.558594 2.921875 1.625 5.953125 3.601563 6.167969 4.019531 13.277344 8.605469 21.136719 13.625 8.859375 5.648437 20.273437 10.75 33.910156 15.152344 13.941406 4.507812 28.160156 6.796875 42.273437 6.796875 14.113282 0 28.335938-2.289063 42.269532-6.792969 13.648437-4.410156 25.058594-9.507813 33.929687-15.164063 8.042969-5.140624 14.953125-9.59375 21.121094-13.617187 3.03125-1.972656 4.902344-3.042969 5.953125-3.601563 8.625.230469 16.566406 1.761719 23.636719 4.558594 7.636719 3.023438 14.121093 7.058594 19.265625 11.980469 5.5 5.261719 10.484375 11.796875 14.816406 19.421875 4.542969 7.988281 8.207031 16.289062 10.886719 24.660156 2.800781 8.75 5.15625 18.398438 7 28.675782 1.867187 10.433593 3.132812 20.238281 3.75 29.144531v.007812c.636719 9.058594.957031 18.527344.960937 28.148438-.003906 18.449219-5.214844 32.378906-15.9375 42.582031zm0 0"/>
    </symbol>
</svg>